<svg width="96" height="96" xmlns="http://www.w3.org/2000/svg" xmlns:xlink="http://www.w3.org/1999/xlink" overflow="hidden"><defs><clipPath id="clip0"><rect x="592" y="312" width="96" height="96"/></clipPath></defs><g clip-path="url(#clip0)" transform="translate(-592 -312)"><path d="M624.249 372.8C626.582 375.388 625.89 379.815 622.704 382.686 619.517 385.558 615.043 385.788 612.71 383.2 610.378 380.611 611.07 376.185 614.256 373.313 617.443 370.442 621.917 370.212 624.249 372.8Z" fill="#92D050"/><path d="M673.765 372.8C676.098 375.388 675.406 379.815 672.219 382.686 669.033 385.558 664.559 385.788 662.226 383.2 659.893 380.611 660.586 376.185 663.772 373.313 666.958 370.442 671.433 370.212 673.765 372.8Z" fill="#92D050"/><path d="M612.229 336 610.771 343 599.642 343 599.017 346 610.146 346 609.313 350 601.642 350 601.017 353 608.688 353 607.855 357 595.642 357 595.017 360 607.23 360 615.642 360 653.746 360 658.746 336 612.229 336Z" fill="#92D050"/><path d="M683.979 360.8 679.513 356.8C678.916 356.263 678.568 355.503 678.55 354.7L677.987 347.8C677.732 344.439 674.868 341.879 671.5 342L661.5 342 658.579 356 657.329 362 654 378 658 378C659.146 372.5 664.583 368 670.083 368 675.583 368 679.142 372.5 678 378 680.325 377.898 682.298 376.264 682.833 374L684.917 364C685.204 362.842 684.846 361.62 683.979 360.8ZM662.579 356 664.662 346 670.662 346C672.315 345.889 673.745 347.139 673.857 348.792 673.859 348.828 673.861 348.864 673.862 348.9L674.425 355.8C674.404 355.9 674.504 355.9 674.483 356Z" fill="#92D050"/><path d="M603.48 378 608.48 378C609.626 372.5 615.063 368 620.563 368 626.063 368 629.626 372.5 628.48 378L650 378 652.917 364 606.4 364Z" fill="#92D050"/></g></svg>