<svg xmlns="http://www.w3.org/2000/svg" viewBox="0 0 179.23 179.23"><defs><style>.cls-1{fill:#1d1d1b;}</style></defs><g id="Calque_2" data-name="Calque 2"><g id="Calque_1-2" data-name="Calque 1"><path class="cls-1" d="M86,92.54a8,8,0,0,0-4.3,2.91,7.52,7.52,0,0,0-1.82,4.85A7.12,7.12,0,0,0,84.26,107a.6.6,0,0,1,.67.66.84.84,0,0,1-.55.37A10.44,10.44,0,0,1,76.5,98a13.31,13.31,0,0,1,8.07-12.07l-1.7-9c-7.58,6.37-12,12.55-13,18.56a26.83,26.83,0,0,0-.25,4.61,11.5,11.5,0,0,0,1.16,3.82,15,15,0,0,0,14.13,9.22,19.62,19.62,0,0,0,5-.79Zm2.73-47.86c-2.36,0-4.3,2.18-5.7,6.49a30,30,0,0,0-1.58,9.1,13.6,13.6,0,0,0,1.16,5.64c2.06-1.09,4.12-3.52,6.12-7.34q2.91-5.46,2.91-9.28C91.66,46.19,90.69,44.68,88.75,44.68Zm7.16,52.16a9,9,0,0,0-8.07-4.54l3.88,19.47c3.83-1.64,5.77-5,5.77-10.25A9,9,0,0,0,95.91,96.84Zm0,0a9,9,0,0,0-8.07-4.54l3.88,19.47c3.83-1.64,5.77-5,5.77-10.25A9,9,0,0,0,95.91,96.84ZM88.75,58.57q2.91-5.46,2.91-9.28c0-3.1-1-4.61-2.91-4.61-2.36,0-4.3,2.18-5.7,6.49a30,30,0,0,0-1.58,9.1,13.6,13.6,0,0,0,1.16,5.64C84.69,64.82,86.75,62.39,88.75,58.57Zm-7,36.88a7.52,7.52,0,0,0-1.82,4.85A7.12,7.12,0,0,0,84.26,107a.6.6,0,0,1,.67.66.84.84,0,0,1-.55.37A10.44,10.44,0,0,1,76.5,98a13.31,13.31,0,0,1,8.07-12.07l-1.7-9c-7.58,6.37-12,12.55-13,18.56a26.83,26.83,0,0,0-.25,4.61,11.5,11.5,0,0,0,1.16,3.82,15,15,0,0,0,14.13,9.22,19.62,19.62,0,0,0,5-.79L86,92.54A8,8,0,0,0,81.72,95.45ZM89.61,0a89.62,89.62,0,1,0,89.62,89.62A89.61,89.61,0,0,0,89.61,0ZM64.82,77.21l-1.06,1.62a2.59,2.59,0,0,1-2.12.67H51.56v30.09c0,2.17.84,2.51,3.57,3.06.72.12.83.56.61,1l-.44,1a1.11,1.11,0,0,1-1,.39H42.66c-.45,0-1-.12-.73-.84l.34-.89c.22-.61.67-.67,1.06-.78a3,3,0,0,0,2.84-3l0-30.08H33.67c-.78,0-1.56-.28-.78-1.17L34,76.72a2.6,2.6,0,0,1,2.12-.67H64C64.82,76,65.6,76.32,64.82,77.21Zm27.33,36.38,1.64,7.7a40.21,40.21,0,0,1,.91,7.77,8.56,8.56,0,0,1-3.28,6.85A11.08,11.08,0,0,1,84,138.7a11.74,11.74,0,0,1-7.16-2.24A7.64,7.64,0,0,1,73.47,130a7.79,7.79,0,0,1,1.69-4.86A5.32,5.32,0,0,1,79.41,123c3.34,0,5.64,2.67,5.64,6.07s-2.42,5.39-5.88,5.39A5.35,5.35,0,0,0,84,136.76a8.87,8.87,0,0,0,8.07-5.22,11.71,11.71,0,0,0,.54-4.3,33.81,33.81,0,0,0-.84-6.56l-1.58-6.36a25.2,25.2,0,0,1-5.52.66,16.57,16.57,0,0,1-6.92-1.76,20.78,20.78,0,0,1-8.91-8.06,21.71,21.71,0,0,1-3.34-11.59c0-4.61,1.7-9.4,5.16-14.38A96.45,96.45,0,0,1,81.05,67.42a63.54,63.54,0,0,1-1.88-12.55,34,34,0,0,1,1.33-9.65c1.16-3.94,2.73-6.67,4.79-8.19a5.39,5.39,0,0,1,2.43-1.27c.43,0,1,.48,1.82,1.46C92.51,40.85,94,46,94,52.68a35,35,0,0,1-.49,6.37A31.06,31.06,0,0,1,90.15,68a30.26,30.26,0,0,1-5.64,7.46l2,10a13.1,13.1,0,0,0,2.42-.24,11.46,11.46,0,0,1,9.16,4.61,15.92,15.92,0,0,1,3.4,10.13A14.18,14.18,0,0,1,92.15,113.59Zm59.21-36.77-.34,1c-.22.55-.78.67-1.39.83-1.67.34-2.84,1-2.84,3.18v27.63c0,2.18.83,2.51,3.56,3.07.73.11.84.56.62,1l-.45,1a1.11,1.11,0,0,1-1,.39h-11.7c-.44,0-1-.12-.72-.84l.33-.89c.22-.61.67-.67,1.06-.78a3,3,0,0,0,2.84-3V85.4h-.11l-13.6,28.31c-.33.67-.61,1.23-1,1.23H125.5c-.33,0-.78-.78-1.22-1.79L111.46,85.4h-.11v24.07c0,2.18.83,2.51,3.56,3.07.73.11.84.56.62,1l-.45,1a1.09,1.09,0,0,1-1,.39h-9.75c-.44,0-1-.12-.72-.84l.33-.89c.23-.61.67-.67,1.06-.78a3,3,0,0,0,2.84-3v-28a10,10,0,0,0-5-3.06c-1.12-.22-1.23-.61-1-1.12l.45-1a1.09,1.09,0,0,1,1-.39h7.41c1.83,0,2.22.22,3.17,2.29l13.54,29.14,14.38-29.65c.72-1.5,1.56-1.78,2.34-1.78h6.41C151.13,75.93,151.63,76,151.36,76.82ZM87.84,92.3l3.88,19.47c3.83-1.64,5.77-5,5.77-10.25a10,10,0,0,0-9.65-9.22Zm.91-33.73q2.91-5.46,2.91-9.28c0-3.1-1-4.61-2.91-4.61-2.36,0-4.3,2.18-5.7,6.49a30,30,0,0,0-1.58,9.1,13.6,13.6,0,0,0,1.16,5.64C84.69,64.82,86.75,62.39,88.75,58.57Zm-7,36.88a7.52,7.52,0,0,0-1.82,4.85A7.12,7.12,0,0,0,84.26,107a.6.6,0,0,1,.67.66.84.84,0,0,1-.55.37A10.44,10.44,0,0,1,76.5,98a13.31,13.31,0,0,1,8.07-12.07l-1.7-9c-7.58,6.37-12,12.55-13,18.56a26.83,26.83,0,0,0-.25,4.61,11.5,11.5,0,0,0,1.16,3.82,15,15,0,0,0,14.13,9.22,19.62,19.62,0,0,0,5-.79L86,92.54A8,8,0,0,0,81.72,95.45Z"/></g></g></svg>